<svg width="1200" height="630" viewBox="0 0 1200 630" fill="none" xmlns="http://www.w3.org/2000/svg">
  <rect width="1200" height="630" fill="#0B1120"/>
  <rect x="72" y="72" width="1056" height="486" rx="8" fill="#111827" stroke="#334155"/>
  <rect x="112" y="112" width="320" height="28" rx="4" fill="#38BDF8"/>
  <rect x="112" y="176" width="680" height="36" rx="4" fill="#F8FAFC"/>
  <rect x="112" y="236" width="530" height="22" rx="4" fill="#94A3B8"/>
  <rect x="112" y="294" width="258" height="54" rx="8" fill="#1A2233" stroke="#334155"/>
  <rect x="390" y="294" width="214" height="54" rx="8" fill="#1A2233" stroke="#334155"/>
  <rect x="112" y="408" width="976" height="1" fill="#334155"/>
  <rect x="112" y="448" width="240" height="28" rx="4" fill="#F8FAFC"/>
  <rect x="112" y="500" width="520" height="18" rx="4" fill="#94A3B8"/>
  <rect x="760" y="292" width="246" height="176" rx="8" fill="#1A2233" stroke="#334155"/>
  <rect x="792" y="324" width="182" height="16" rx="4" fill="#94A3B8"/>
  <rect x="792" y="362" width="118" height="16" rx="4" fill="#38BDF8"/>
  <rect x="792" y="400" width="154" height="16" rx="4" fill="#94A3B8"/>
</svg>
